<svg width="474" height="474" viewBox="0 0 474 474" fill="none" xmlns="http://www.w3.org/2000/svg">
<g filter="url(#filter0_d_67_284)">
<path d="M9.3999 138.68C9.3999 67.2804 67.2805 9.3999 138.68 9.3999H334.52C405.919 9.3999 463.8 67.2805 463.8 138.68V334.52C463.8 405.919 405.919 463.8 334.52 463.8H138.68C67.2804 463.8 9.3999 405.919 9.3999 334.52V138.68Z" fill="url(#paint0_linear_67_284)"/>
<path d="M138.68 12.3999H334.52C404.263 12.3999 460.8 68.9376 460.8 138.68V334.52C460.8 404.262 404.262 460.8 334.52 460.8H138.68C68.9377 460.8 12.4 404.262 12.3999 334.52V138.68C12.3999 68.9377 68.9376 12.3999 138.68 12.3999Z" fill="black" fill-opacity="0.01" stroke="url(#paint1_linear_67_284)" stroke-width="6"/>
<g filter="url(#filter2_d_67_284)">
<path d="M186.129 218.122C183.301 223.02 184.979 229.282 189.877 232.11L233.109 257.07C238.006 259.897 239.684 266.16 236.857 271.058L206.457 323.712C203.629 328.61 197.366 330.288 192.468 327.461L88.2685 267.301C83.3708 264.473 81.6927 258.21 84.5204 253.313L155.56 130.268C158.388 125.37 164.651 123.692 169.548 126.52L212.781 151.48C217.678 154.308 219.356 160.57 216.529 165.468L186.129 218.122Z" fill="#7CB6FF"/>
<path d="M292.377 259.651C295.204 254.753 293.526 248.49 288.629 245.662L245.397 220.703C240.499 217.875 238.821 211.612 241.649 206.715L272.049 154.06C274.877 149.162 281.14 147.484 286.037 150.312L390.237 210.472C395.135 213.3 396.813 219.562 393.985 224.46L322.946 347.504C320.118 352.402 313.855 354.08 308.958 351.253L265.725 326.292C260.828 323.465 259.149 317.202 261.977 312.304L292.377 259.651Z" fill="#7CB6FF"/>
</g>
<g filter="url(#filter3_d_67_284)">
<path d="M184.129 216.122C181.301 221.02 182.979 227.282 187.877 230.11L231.109 255.07C236.006 257.897 237.684 264.16 234.857 269.058L204.457 321.712C201.629 326.61 195.366 328.288 190.468 325.461L86.2685 265.301C81.3708 262.473 79.6927 256.21 82.5204 251.313L153.56 128.268C156.388 123.37 162.651 121.692 167.548 124.52L210.781 149.48C215.678 152.308 217.356 158.57 214.529 163.468L184.129 216.122Z" fill="url(#paint2_linear_67_284)"/>
<path d="M290.377 255.651C293.204 250.753 291.526 244.49 286.629 241.662L243.397 216.703C238.499 213.875 236.821 207.612 239.649 202.715L270.049 150.06C272.877 145.162 279.14 143.484 284.037 146.312L388.237 206.472C393.135 209.3 394.813 215.562 391.985 220.46L320.946 343.504C318.118 348.402 311.855 350.08 306.958 347.253L263.725 322.292C258.828 319.465 257.149 313.202 259.977 308.304L290.377 255.651Z" fill="url(#paint3_linear_67_284)"/>
</g>
<mask id="path-7-inside-1_67_284" fill="white">
<path d="M184.241 215.692C181.402 220.584 183.077 226.833 187.981 229.649L231.246 254.502C236.15 257.318 237.824 263.567 234.986 268.459L204.588 320.841C201.749 325.733 195.473 327.415 190.569 324.598L86.2794 264.693C81.3754 261.876 79.7011 255.627 82.5396 250.736L153.615 128.257C156.453 123.365 162.73 121.683 167.634 124.5L210.899 149.352C215.803 152.169 217.477 158.418 214.639 163.31L184.241 215.692Z"/>
</mask>
<path d="M210.899 149.352L210.297 150.39L210.899 149.352ZM167.634 124.5L168.236 123.462L167.634 124.5ZM231.246 254.502L231.848 253.464L231.246 254.502ZM187.981 229.649L187.378 230.687L187.981 229.649ZM187.981 229.649L187.378 230.687L230.644 255.539L231.246 254.502L231.848 253.464L188.583 228.612L187.981 229.649ZM234.986 268.459L233.945 267.861L203.547 320.244L204.588 320.841L205.628 321.439L236.026 269.056L234.986 268.459ZM190.569 324.598L191.171 323.56L86.8817 263.655L86.2794 264.693L85.6771 265.731L189.966 325.636L190.569 324.598ZM82.5396 250.736L83.5802 251.333L154.655 128.854L153.615 128.257L152.574 127.659L81.4991 250.138L82.5396 250.736ZM167.634 124.5L167.031 125.538L210.297 150.39L210.899 149.352L211.501 148.314L168.236 123.462L167.634 124.5ZM214.639 163.31L213.598 162.712L183.2 215.095L184.241 215.692L185.281 216.29L215.679 163.907L214.639 163.31ZM210.899 149.352L210.297 150.39C214.626 152.877 216.104 158.394 213.598 162.712L214.639 163.31L215.679 163.907C218.851 158.443 216.98 151.461 211.501 148.314L210.899 149.352ZM153.615 128.257L154.655 128.854C157.161 124.536 162.702 123.051 167.031 125.538L167.634 124.5L168.236 123.462C162.757 120.315 155.745 122.194 152.574 127.659L153.615 128.257ZM86.2794 264.693L86.8817 263.655C82.5524 261.168 81.0743 255.652 83.5802 251.333L82.5396 250.736L81.4991 250.138C78.3279 255.603 80.1985 262.584 85.6771 265.731L86.2794 264.693ZM204.588 320.841L203.547 320.244C201.041 324.562 195.5 326.047 191.171 323.56L190.569 324.598L189.966 325.636C195.445 328.783 202.457 326.904 205.628 321.439L204.588 320.841ZM231.246 254.502L230.644 255.539C234.973 258.026 236.451 263.543 233.945 267.861L234.986 268.459L236.026 269.056C239.197 263.592 237.327 256.611 231.848 253.464L231.246 254.502ZM187.981 229.649L188.583 228.612C184.254 226.125 182.776 220.608 185.281 216.29L184.241 215.692L183.2 215.095C180.029 220.559 181.9 227.54 187.378 230.687L187.981 229.649Z" fill="#E6F4FF" mask="url(#path-7-inside-1_67_284)"/>
<mask id="path-9-inside-2_67_284" fill="white">
<path d="M290.557 255.107C293.396 250.216 291.722 243.967 286.818 241.15L243.553 216.299C238.649 213.482 236.975 207.233 239.813 202.341L270.212 149.958C273.05 145.066 279.327 143.385 284.231 146.202L388.519 206.106C393.423 208.923 395.098 215.172 392.259 220.063L321.184 342.542C318.346 347.434 312.069 349.115 307.165 346.299L263.9 321.446C258.996 318.63 257.321 312.381 260.16 307.489L290.557 255.107Z"/>
</mask>
<path d="M263.9 321.446L263.297 322.484L263.9 321.446ZM270.212 149.958L271.252 150.556L270.212 149.958ZM243.553 216.299L242.951 217.337L243.553 216.299ZM239.813 202.341L238.773 201.744L239.813 202.341ZM286.818 241.15L287.42 240.112L286.818 241.15ZM286.818 241.15L287.42 240.112L244.156 215.261L243.553 216.299L242.951 217.337L286.215 242.188L286.818 241.15ZM239.813 202.341L240.854 202.939L271.252 150.556L270.212 149.958L269.171 149.36L238.773 201.744L239.813 202.341ZM284.231 146.202L283.629 147.239L387.917 207.144L388.519 206.106L389.122 205.068L284.833 145.164L284.231 146.202ZM392.259 220.063L391.219 219.465L320.143 341.944L321.184 342.542L322.225 343.14L393.3 220.661L392.259 220.063ZM307.165 346.299L307.767 345.261L264.502 320.409L263.9 321.446L263.297 322.484L306.563 347.336L307.165 346.299ZM260.16 307.489L261.201 308.087L291.598 255.705L290.557 255.107L289.517 254.51L259.119 306.892L260.16 307.489ZM263.9 321.446L264.502 320.409C260.173 317.922 258.695 312.405 261.201 308.087L260.16 307.489L259.119 306.892C255.948 312.356 257.819 319.337 263.297 322.484L263.9 321.446ZM321.184 342.542L320.143 341.944C317.638 346.263 312.097 347.747 307.767 345.261L307.165 346.299L306.563 347.336C312.041 350.483 319.053 348.605 322.225 343.14L321.184 342.542ZM388.519 206.106L387.917 207.144C392.246 209.631 393.725 215.147 391.219 219.465L392.259 220.063L393.3 220.661C396.471 215.196 394.6 208.215 389.122 205.068L388.519 206.106ZM270.212 149.958L271.252 150.556C273.758 146.237 279.299 144.753 283.629 147.239L284.231 146.202L284.833 145.164C279.355 142.017 272.343 143.895 269.171 149.36L270.212 149.958ZM243.553 216.299L244.156 215.261C239.826 212.774 238.348 207.257 240.854 202.939L239.813 202.341L238.773 201.744C235.602 207.208 237.472 214.19 242.951 217.337L243.553 216.299ZM286.818 241.15L286.215 242.188C290.545 244.675 292.023 250.191 289.517 254.51L290.557 255.107L291.598 255.705C294.769 250.24 292.899 243.259 287.42 240.112L286.818 241.15Z" fill="#E6F4FF" mask="url(#path-9-inside-2_67_284)"/>
</g>
<defs>
<filter id="filter0_d_67_284" x="-9.72748e-05" y="-9.72748e-05" width="473.2" height="473.2" filterUnits="userSpaceOnUse" color-interpolation-filters="sRGB">
<feFlood flood-opacity="0" result="BackgroundImageFix"/>
<feColorMatrix in="SourceAlpha" type="matrix" values="0 0 0 0 0 0 0 0 0 0 0 0 0 0 0 0 0 0 127 0" result="hardAlpha"/>
<feOffset/>
<feGaussianBlur stdDeviation="4.7"/>
<feComposite in2="hardAlpha" operator="out"/>
<feColorMatrix type="matrix" values="0 0 0 0 0.00261343 0 0 0 0 0.0778612 0 0 0 0 0.222656 0 0 0 0.2 0"/>
<feBlend mode="normal" in2="BackgroundImageFix" result="effect1_dropShadow_67_284"/>
<feBlend mode="normal" in="SourceGraphic" in2="effect1_dropShadow_67_284" result="shape"/>
</filter>
<filter id="filter2_d_67_284" x="61.947" y="121.946" width="354.612" height="269.879" filterUnits="userSpaceOnUse" color-interpolation-filters="sRGB">
<feFlood flood-opacity="0" result="BackgroundImageFix"/>
<feColorMatrix in="SourceAlpha" type="matrix" values="0 0 0 0 0 0 0 0 0 0 0 0 0 0 0 0 0 0 127 0" result="hardAlpha"/>
<feOffset dy="18"/>
<feGaussianBlur stdDeviation="10.6"/>
<feComposite in2="hardAlpha" operator="out"/>
<feColorMatrix type="matrix" values="0 0 0 0 0 0 0 0 0 0.239231 0 0 0 0 0.868972 0 0 0 1 0"/>
<feBlend mode="normal" in2="BackgroundImageFix" result="effect1_dropShadow_67_284"/>
<feBlend mode="normal" in="SourceGraphic" in2="effect1_dropShadow_67_284" result="shape"/>
</filter>
<filter id="filter3_d_67_284" x="59.947" y="119.946" width="354.612" height="267.879" filterUnits="userSpaceOnUse" color-interpolation-filters="sRGB">
<feFlood flood-opacity="0" result="BackgroundImageFix"/>
<feColorMatrix in="SourceAlpha" type="matrix" values="0 0 0 0 0 0 0 0 0 0 0 0 0 0 0 0 0 0 127 0" result="hardAlpha"/>
<feOffset dy="18"/>
<feGaussianBlur stdDeviation="10.6"/>
<feComposite in2="hardAlpha" operator="out"/>
<feColorMatrix type="matrix" values="0 0 0 0 0 0 0 0 0 0.239231 0 0 0 0 0.868972 0 0 0 0.3 0"/>
<feBlend mode="normal" in2="BackgroundImageFix" result="effect1_dropShadow_67_284"/>
<feBlend mode="normal" in="SourceGraphic" in2="effect1_dropShadow_67_284" result="shape"/>
</filter>
<linearGradient id="paint0_linear_67_284" x1="163.4" y1="9.39991" x2="296.4" y2="463.4" gradientUnits="userSpaceOnUse">
<stop offset="0.0355745" stop-color="#41CBFD"/>
<stop offset="0.909369" stop-color="#123EF4"/>
</linearGradient>
<linearGradient id="paint1_linear_67_284" x1="54.3999" y1="47.3999" x2="426.4" y2="434.4" gradientUnits="userSpaceOnUse">
<stop stop-color="white"/>
<stop offset="0.480769" stop-color="#898E99" stop-opacity="0"/>
<stop offset="1" stop-color="white"/>
</linearGradient>
<linearGradient id="paint2_linear_67_284" x1="162.4" y1="186.4" x2="361.4" y2="449.402" gradientUnits="userSpaceOnUse">
<stop stop-color="white"/>
<stop offset="1" stop-color="#158DFE"/>
</linearGradient>
<linearGradient id="paint3_linear_67_284" x1="232.399" y1="196.4" x2="350.398" y2="374.401" gradientUnits="userSpaceOnUse">
<stop stop-color="white"/>
<stop offset="1" stop-color="#158DFE"/>
</linearGradient>
</defs>
</svg>
